<?xml version="1.0" encoding="utf-8"?>
<!-- Generator: Adobe Illustrator 26.0.2, SVG Export Plug-In . SVG Version: 6.00 Build 0)  -->
<svg version="1.1" id="Ebene_1" xmlns="http://www.w3.org/2000/svg" xmlns:xlink="http://www.w3.org/1999/xlink" x="0px" y="0px"
	 viewBox="0 0 862 1080" style="enable-background:new 0 0 862 1080;" xml:space="preserve">
<style type="text/css">
	.st0{fill:none;stroke:#000000;stroke-width:14.3293;stroke-linecap:round;stroke-miterlimit:10;}
	.st1{fill:#91CEED;}
	.st2{opacity:0.55;fill:#78AEC4;}
	.st3{fill:#E0C03B;}
	.st4{fill:#FFE05C;}
	.st5{fill:#F7B7B7;}
	.st6{fill:none;stroke:#000000;stroke-width:4;stroke-linecap:square;stroke-miterlimit:10;}
</style>
<g>
	<g>
		<path class="st0" d="M683.08,455.92c0,0,37.62-61.7-4.26-120.88"/>
		<circle cx="664.32" cy="308.66" r="30.2"/>
	</g>
	<g>
		<path class="st0" d="M706.97,435.49c0,0,58.07-43.01,41.54-113.6"/>
		<circle cx="745.01" cy="291.99" r="30.2"/>
	</g>
	<path class="st1" d="M171.73,669.64v-27.59c0-2.34-2.06-4.15-4.38-3.85L60.85,652c-4.51,0.58-4.51,7.11,0,7.7l106.5,13.79
		C169.67,673.79,171.73,671.99,171.73,669.64z"/>
	<path class="st2" d="M453.12,473.81c0,0-121.32-60.13-158.98-112.16c-52.26-72.19-117.99-213.71,27.79-270.2
		C481.76,29.53,572.29,326.91,453.12,473.81z"/>
	<path d="M280.42,936.88c6.47-30.03,15.34-59.21,26.67-87.77c7.94-20.01-24.4-28.7-32.26-8.89c-11.33,28.55-20.2,57.74-26.67,87.77
		C243.64,948.98,275.88,957.95,280.42,936.88L280.42,936.88z"/>
	<path d="M399.9,947.41c2.02-29.27,3.65-58.55,4.89-87.86c0.91-21.53-32.55-21.48-33.45,0c-1.23,29.31-2.86,58.59-4.89,87.86
		C364.96,968.9,398.42,968.8,399.9,947.41L399.9,947.41z"/>
	<path d="M555.14,942.63c-6.25-27.42-9.93-54.93-11.1-83.03c-0.9-21.45-34.35-21.56-33.45,0c1.29,31.01,5.39,61.66,12.3,91.92
		C527.67,972.51,559.93,963.63,555.14,942.63L555.14,942.63z"/>
	<path d="M667.98,921.46c-8.15-26.87-18.02-53-29.29-78.71c-8.62-19.67-37.46-2.66-28.89,16.89c10.1,23.03,18.62,46.66,25.92,70.72
		C641.96,950.9,674.26,942.14,667.98,921.46L667.98,921.46z"/>
	<path class="st3" d="M338.52,867.71c21.57,6.16,44.28,9.53,67.75,9.53h56.14c-8.72-25.31-15.57-51.29-21.05-77.67
		c-42.8-1.88-85.51-7.15-127.07-15.46C320.72,812.56,328.76,840.53,338.52,867.71z"/>
	<path class="st4" d="M456.2,380.57h-49.93c-25.37,0-49.87,3.87-72.96,11.02c-42.64,124.44-48.1,263.6-19.02,392.52
		c41.56,8.31,84.26,13.58,127.07,15.46C413.32,664.4,425.54,517.38,456.2,380.57z"/>
	<path d="M338.52,867.71c-9.76-27.18-17.81-55.15-24.22-83.6c-43.45-8.69-85.6-20.65-125.25-35.45
		C220.82,805.85,274.45,849.41,338.52,867.71z"/>
	<path d="M333.31,391.59c-101.27,31.36-175.38,126.1-175.38,237.32l0,0c0,43.37,11.35,84.18,31.11,119.75
		c39.65,14.8,81.8,26.77,125.25,35.45C285.22,655.19,290.68,516.03,333.31,391.59z"/>
	<path d="M441.37,799.57c5.47,26.38,12.33,52.36,21.05,77.67h107.25c13.14,0,26.04-1.06,38.64-3.05
		c-8.05-27.19-14.98-54.64-20.87-82.26C539.73,799.41,490.51,801.73,441.37,799.57z"/>
	<path d="M587.43,791.94c-28.78-134.96-30.59-274.13,7.14-410.12c-8.2-0.83-16.51-1.26-24.91-1.26H456.2
		c-30.66,136.82-42.88,283.83-14.83,419.01C490.51,801.73,539.73,799.41,587.43,791.94z"/>
	<path class="st4" d="M818,628.91L818,628.91c0-128.18-98.42-234.48-223.43-247.08c-37.73,135.99-35.92,275.16-7.14,410.12
		c78.96-12.36,153.66-38.75,216.68-81.99C812.98,684.5,818,657.29,818,628.91z"/>
	<path class="st3" d="M587.43,791.94c5.89,27.61,12.82,55.06,20.87,82.26c91.19-14.4,166.1-78.97,195.81-164.24
		C741.09,753.19,666.39,779.59,587.43,791.94z"/>
	<path d="M721.32,557.87c0,13.26-10.75,24.01-24.01,24.01c-13.26,0-24.01-10.75-24.01-24.01c0-13.26,10.75-24.01,24.01-24.01
		C710.57,533.86,721.32,544.61,721.32,557.87z"/>
	<path class="st5" d="M754.91,670.03c0,31.09-25.21,56.3-56.3,56.3c-31.09,0-56.3-25.21-56.3-56.3c0-31.09,25.21-56.3,56.3-56.3
		C729.7,613.73,754.91,638.94,754.91,670.03z"/>
	<path class="st2" d="M428.43,473.81c0,0-134.69-13.85-188.19-49.4c-74.23-49.33-185.34-158.88-68.56-262.83
		C299.73,47.62,488.63,294.49,428.43,473.81z"/>
	<g>
		<path class="st6" d="M792.52,629.93c0,0,11.03,20.17,22.48,21.07"/>
	</g>
</g>
</svg>
