<?xml version="1.0" encoding="utf-8"?>
<!-- Generator: Adobe Illustrator 26.0.2, SVG Export Plug-In . SVG Version: 6.00 Build 0)  -->
<svg version="1.1" xmlns="http://www.w3.org/2000/svg" xmlns:xlink="http://www.w3.org/1999/xlink" x="0px" y="0px"
	 viewBox="0 0 500 500" style="enable-background:new 0 0 500 500;" xml:space="preserve">
<style type="text/css">
	.st0{fill:url(#SVGID_1_);}
	.st1{clip-path:url(#SVGID_00000169537023336913067320000016545853184524491935_);}
	.st2{fill:#FFFFFF;}
	.st3{fill:#3CAA36;}
</style>
<g id="BACKGROUND">
	<linearGradient id="SVGID_1_" gradientUnits="userSpaceOnUse" x1="248.985" y1="502.7429" x2="250.985" y2="4.7429">
		<stop  offset="0" style="stop-color:#CFE9ED"/>
		<stop  offset="1" style="stop-color:#40B8EA"/>
	</linearGradient>
	<rect class="st0" width="500" height="500"/>
</g>
<g id="OBJECTS">
	<g>
		<defs>
			<rect id="SVGID_00000075849899404716814740000011527682003539745175_" width="500" height="500"/>
		</defs>
		<clipPath id="SVGID_00000036963877376227017710000004423827459651226525_">
			<use xlink:href="#SVGID_00000075849899404716814740000011527682003539745175_"  style="overflow:visible;"/>
		</clipPath>
		<g style="clip-path:url(#SVGID_00000036963877376227017710000004423827459651226525_);">
			<path class="st2" d="M453.02,259.85h61.56c0,0,1.32-13.64-6.65-14.78s-12.44,7.39-12.44,7.39s3.15-28.99-13.81-28.99
				c-16.96,0-14.7,26.15-14.7,26.15S446.99,239.39,453.02,259.85z"/>
			<path class="st2" d="M-14.57,149.22h175.35c0,0,1.98-21.6-11.65-26.15s-21.38,5.68-21.38,5.68s0.1-36.38-33.03-42.06
				C61.6,81,52.98,117.95,52.98,117.95S43.4,91.23,21.7,91.23S-14.57,149.22-14.57,149.22z"/>
			<path class="st2" d="M207.91,58.26h61.56c0,0,1.32-13.64-6.65-14.78c-7.96-1.14-12.44,7.39-12.44,7.39s3.15-28.99-13.81-28.99
				c-16.96,0-14.7,26.15-14.7,26.15S201.88,37.8,207.91,58.26z"/>
			<path class="st2" d="M516.35,77.14H344.77c0,0,4.98-18.88,17.8-18.88c12.81,0,17.2,9.44,17.2,9.44s-12.39-29.9,16.05-35.59
				c28.44-5.68,34.11,22.51,34.11,22.51s8.17-33.88,46.16-32.74c37.99,1.14,28.89,44.34,28.89,44.34S525.44,55.09,516.35,77.14z"/>
			<path class="st2" d="M257.17,207.2h125.36c0,0,3.33-13.64-8.17-15.92c-11.5-2.27-18.23,7.85-18.23,7.85s16.94-44.23-22.84-43.09
				c-39.78,1.14-37.65,32.97-37.65,32.97s-7.65-11.39-21.38-7.4C260.55,185.6,257.17,207.2,257.17,207.2z"/>
			<path class="st2" d="M38.55,33.87h58.86c0,0,1.56-6.41-3.84-7.47c-5.4-1.07-8.56,3.69-8.56,3.69S92.97,9.32,74.29,9.85
				c-18.68,0.53-17.68,15.48-17.68,15.48s-3.59-5.35-10.04-3.47C40.13,23.73,38.55,33.87,38.55,33.87z"/>
			<path class="st3" d="M499.42,494.99c-0.55-5.4-1.07-10.8-1.6-16.21c-0.13-1.33-1.97-1.68-2.42-0.32
				c-2.64,8.05-6.97,15.18-12.81,21.22c5.2-14.35,6.08-29.62,2.79-44.64c-0.27-1.21-2.39-0.97-2.23,0.3
				c2.11,17.17-2.6,34.31-13.65,47.72c-1.18-4.6-2.35-9.21-3.52-13.81c-0.22-0.87-1.59-1.11-2.02-0.26
				c-1.92,3.84-4.11,7.47-6.56,10.97c0.83-5.68,0.75-11.36-0.24-17.12c-0.14-0.81-1.45-0.96-1.8-0.23
				c-3.46,7.11-7.73,13.73-12.71,19.87c-0.28-23.6,16.24-42.44,31.22-59.35c0.95-1.07-0.46-2.38-1.56-1.53
				c-18.19,14.08-31.49,33.4-38.13,55.11c0.78-13.61,3.54-27,6.39-40.34c0.24-1.12-1.37-1.57-1.75-0.47
				c-4.64,13.57-9.22,27.16-13.78,40.76c0.05-4.24,0.11-8.49,0.16-12.73c0.01-0.74-1.06-1.27-1.58-0.65
				c-5.17,6.23-10.34,12.46-15.5,18.7c3.3-10.19,3.12-20.93-0.51-31.22c-0.29-0.83-1.42-0.65-1.51,0.2
				c-1.1,10.72-4.84,20.78-10.97,29.65c-0.77-7.61-0.41-15.16,1.08-22.7c0.17-0.85-1-1.43-1.47-0.61
				c-4.34,7.49-8.7,14.98-13.04,22.47c1.2-16.42,8.63-31.69,20.95-42.96c0.73-0.67-0.22-1.89-1.07-1.36
				c-17.11,10.59-30.4,25.94-38.25,44.21c-2.35-5.08-3.16-10.49-2.34-16.14c0.21-1.45-1.54-2.31-2.45-1.02
				c-3.66,5.22-6.89,10.65-9.72,16.32c-0.28-13.5-3.07-26.93-11.67-37.84c-0.8-1.02-2.39,0.1-2.09,1.2
				c3.32,12.13,6.79,26.27-0.75,37.32c-0.53-5.08-1.06-10.16-1.59-15.23c-0.11-1.04-1.7-1.8-2.26-0.6
				c-2.48,5.36-5.56,10.27-9.28,14.81c1.47-9.18,0.53-18.48-2.92-27.24c-0.41-1.05-2.23-1.02-2.15,0.29
				c0.61,10.38-1.73,20.3-6.88,29.26c-0.79-4.76-1.22-9.53-1.26-14.38c-0.01-0.93-1.34-1.34-1.82-0.49
				c-3.18,5.67-6.62,11.17-10.35,16.5c-1.47-3.19,0.64-7.54,1.74-10.55c1.46-4.01,3.09-7.96,4.9-11.83
				c3.2-6.85,6.92-13.43,11.06-19.77c0.7-1.07-0.8-2.03-1.69-1.28c-14.1,11.86-18.62,30.4-29.37,44.7c5.94-15.21,5.84-32.2-0.3-47.5
				c-0.41-1.01-1.93-0.65-1.68,0.46c3.59,15.78,1.09,32.31-6.73,46.42c-0.07-9.47-0.84-18.9-2.39-28.26
				c-0.17-1.03-1.58-0.63-1.69,0.23c-1.4,10.74-4.54,21.05-9.39,30.7c4.09-20.78,7.43-41.89,4.58-63.04c-0.14-1.04-1.72-1.12-1.72,0
				c0.11,22.25-7.5,43.79-21.64,61.07c1.42-8.92,1.81-17.89,1.12-26.92c-0.06-0.82-1.35-1.12-1.55-0.21
				c-2.05,9.53-6.4,18.08-12.86,25.33c2.04-9.32,2.81-18.75,2.3-28.31c-0.04-0.69-1.02-1.04-1.39-0.37
				c-5.51,10.06-11.03,20.13-16.54,30.19c-3.67-15.68,8.43-29.07,12.99-43.37c0.23-0.73-0.8-1.35-1.33-0.76
				c-10.02,11.16-20.08,22.96-24.76,37.22c1.71-30.49,17.02-59.37,41.65-78.13c0.65-0.49-0.19-1.52-0.87-1.11
				c-29.84,18.02-51.72,47.69-59.1,81.41c-1.53-11.03-6.27-21.07-13.71-29.65c-0.81-0.93-2.42,0.29-1.72,1.31
				c5.4,7.96,3.88,17.43,1.45,26.2c-1.14-5.34-1.51-10.72-1.11-16.23c0.07-0.99-1.56-1.48-1.97-0.53
				c-2.89,6.68-5.41,13.49-7.51,20.44c-0.72-13.38-4.07-26.4-9.93-38.61c-0.5-1.04-2.24-0.31-1.89,0.78
				c4.16,12.67,8.46,26.98,3.61,39.82c-0.08-5.09-0.64-10.13-1.67-15.16c-0.24-1.17-1.89-0.78-1.98,0.26
				c-0.63,7.11-2.61,13.76-5.91,20.06c-2.44-4.85-1.13-10.92-0.66-16.13c0.57-6.32,1.14-12.64,1.72-18.96
				c0.1-1.14-1.57-1.22-1.92-0.26c-3.43,9.55-6.87,19.09-10.3,28.64c-0.06-15.24-1.04-30.63-8.43-44.36
				c-0.51-0.94-1.97-0.29-1.71,0.71c3.92,15.07,7.95,32.46-0.72,46.4c0.65-5.21,0.41-10.39-0.74-15.62c-0.21-0.96-1.56-0.83-1.84,0
				c-1.77,5.25-4.09,10.18-6.99,14.87c-1.78-9.39,3.58-18.14,8.65-25.86c0.63-0.95-0.73-1.84-1.52-1.16
				c-7.69,6.63-13.46,14.81-17.08,24.1c-0.2-7.7,0.46-15.35,2.12-22.93c0.17-0.79-0.86-1.56-1.48-0.85
				c-6.51,7.43-4.27,18.05-8.98,26.17c-0.57-3.64-1.43-7.18-2.6-10.7c-0.29-0.88-1.48-0.66-1.57,0.21
				c-0.51,4.93-2.63,9.18-6.11,12.55c1.46-10.52,0.93-21.03-1.66-31.38c-0.25-1-1.87-0.8-1.83,0.24c0.34,9.55-2.22,18.59-7.43,26.52
				c-0.39-4.46-0.78-8.92-1.17-13.38c-0.07-0.82-1.31-1.37-1.75-0.47c-2.78,5.73-5.54,11.47-8.29,17.22
				c0.79-16.29,10.11-30.29,19.46-43.37c0.6-0.84-0.68-1.71-1.39-1.06c-12.23,11.25-22.18,24.78-29.64,39.52
				c1.2-10.61,0.62-21.23-1.68-31.76c-0.21-0.97-1.69-0.72-1.71,0.23c-0.21,10.96-2.02,21.66-5.42,32.04
				c-0.46-5.11-1.41-10.12-3.13-15.04c-0.34-0.99-1.64-0.74-1.76,0.24c-0.67,5.37-2.16,10.45-4.44,15.25
				c2.12-11.1,1.48-22.43-1.87-33.36c-0.34-1.09-1.82-0.8-1.93,0.26c-1.33,12.74-5.07,24.9-11.14,36.16c-0.12-6.02,0.17-12,0.93-18
				c0.05-0.38-0.2-0.65-0.52-0.77c-0.52-0.48-1.44-0.57-1.95,0.2c-2.1,3.17-4.12,6.4-5.78,9.77c0.63-5,1.51-9.96,2.89-14.83
				c1.4-4.95,3.32-9.75,5.95-14.19c2.32-3.93,5.21-7.45,6.96-11.69c0.41-0.99-1.18-1.9-1.85-1.06c-0.06,0.07-0.11,0.15-0.17,0.22
				c0,0,0,0,0,0c0,0,0,0,0,0C6.77,466.31-1.74,485.5-0.11,504.4c0.04,0.5,0.75,0.5,0.79,0c0.2-2.44,0.46-4.85,0.78-7.23
				c-0.27,2.57-0.49,5.15-0.69,7.72c-0.02,0.16-0.03,0.31-0.05,0.47c-3.84,2.02-6.77,4.82-8.99,8.55c-0.41,0.69-0.33,1.75,0.3,2.31
				c10.82,9.48,24.82,12.87,38.85,14.66c17.95,2.29,36.1,3.43,54.16,4.41c37.81,2.05,75.7,2.17,113.54,1.13
				c75.85-2.1,151.51-8.79,227.13-14.68c21.24-1.65,42.6-2.8,63.79-5.03c5.05-0.53,10.51-2.18,11.11-7.89
				C501.08,504.35,499.87,499.42,499.42,494.99z"/>
		</g>
	</g>
</g>
</svg>
